<?xml version="1.0" standalone="no"?>
<!DOCTYPE svg PUBLIC "-//W3C//DTD SVG 20010904//EN"
 "http://www.w3.org/TR/2001/REC-SVG-20010904/DTD/svg10.dtd">
<svg version="1.0" xmlns="http://www.w3.org/2000/svg"
 width="880.000000pt" height="574.000000pt" viewBox="0 0 880.000000 574.000000"
 preserveAspectRatio="xMidYMid meet">
<metadata>
Created by potrace 1.16, written by Peter Selinger 2001-2019
</metadata>
<g transform="translate(0.000000,574.000000) scale(0.100000,-0.100000)"
fill="#000000" stroke="none">
<path d="M5937 4300 c-36 -29 -52 -60 -76 -156 -24 -95 -67 -391 -77 -525 l-7
-97 -36 -6 c-20 -3 -73 -6 -118 -6 -64 0 -83 3 -83 14 0 8 -9 80 -20 161 -18
135 -23 156 -64 240 -31 63 -64 113 -108 160 -62 66 -65 68 -121 73 l-56 4
-13 -46 -12 -46 -192 0 -191 0 -7 39 c-5 31 -11 40 -31 45 -41 11 -77 -14
-118 -83 -40 -66 -99 -210 -112 -271 -4 -19 -13 -42 -21 -50 -9 -11 -14 -52
-16 -130 l-3 -115 -201 -3 -201 -2 -7 90 c-6 75 -12 95 -32 119 -13 16 -44 80
-68 143 -24 62 -57 143 -74 178 -16 36 -36 83 -43 105 -12 33 -20 40 -44 43
-27 3 -32 -2 -52 -47 -13 -27 -23 -54 -23 -60 0 -8 -56 -11 -184 -11 l-183 0
-19 52 c-16 42 -25 53 -49 60 -40 11 -75 2 -75 -20 0 -10 -15 -25 -33 -35 -48
-26 -122 -124 -169 -223 -39 -83 -41 -95 -50 -223 -14 -192 -7 -181 -128 -181
l-100 0 0 33 c-1 102 -44 421 -68 508 -20 70 -76 164 -123 203 -37 31 -97 40
-217 33 -98 -7 -153 -28 -167 -64 -7 -20 -31 -279 -41 -444 -6 -101 -4 -124
14 -180 11 -35 23 -82 26 -104 5 -42 -17 -392 -26 -401 -3 -3 -13 2 -21 11 -9
8 -21 15 -28 15 -8 0 -10 12 -5 39 17 108 37 394 32 454 -8 91 -51 289 -82
384 -40 118 -132 252 -189 273 -41 15 -244 12 -301 -5 -32 -9 -63 -28 -87 -53
l-38 -38 -25 -244 -26 -243 26 -86 c14 -47 26 -90 26 -94 0 -4 -23 -7 -52 -5
l-52 3 -28 69 c-61 150 -87 166 -278 166 l-141 0 -42 -42 c-52 -53 -101 -152
-127 -255 -24 -96 -41 -263 -29 -283 4 -8 9 -10 9 -5 0 6 8 0 18 -12 16 -20
21 -21 62 -11 25 5 55 12 68 13 13 2 29 9 37 15 13 10 15 8 15 -16 0 -36 10
-49 35 -48 11 0 30 -3 42 -8 17 -6 25 -3 34 13 10 20 11 20 24 2 8 -10 15 -13
15 -6 0 7 7 10 17 6 12 -5 14 -3 8 8 -7 12 -6 12 7 1 12 -9 39 -11 99 -7 46 4
91 7 99 7 8 1 18 6 22 12 5 7 8 7 8 -2 0 -9 7 -11 19 -7 11 3 22 2 25 -4 3 -5
15 -7 26 -4 18 5 20 0 20 -40 0 -25 -4 -48 -9 -52 -5 -3 -45 -5 -88 -5 -43 1
-109 0 -148 -1 -38 -1 -81 -3 -95 -3 -32 0 -41 -14 -34 -51 10 -46 20 -55 53
-42 35 13 81 2 81 -20 0 -16 1 -16 13 0 10 14 18 15 56 5 36 -9 41 -13 25 -19
-16 -6 -16 -8 -2 -8 9 -1 20 4 23 9 8 12 125 13 125 1 0 -10 -24 -21 -46 -21
-9 0 -12 5 -9 10 9 15 -25 12 -40 -4 -17 -17 -106 -11 -117 7 -5 7 -8 8 -8 2
0 -6 -12 -12 -28 -13 -15 -1 -38 -7 -51 -14 -19 -10 -25 -10 -28 0 -3 6 -11
12 -20 12 -11 0 -13 -7 -8 -32 l6 -33 -20 33 c-12 18 -21 47 -21 65 0 17 -3
55 -6 83 -6 44 -9 51 -25 47 -11 -3 -19 -9 -19 -14 0 -5 -12 -4 -26 2 l-27 10
7 -103 c4 -57 9 -124 12 -150 6 -44 5 -46 -19 -45 -17 2 -23 7 -20 17 4 13 4
13 -6 0 -12 -18 -152 -23 -163 -6 -13 18 -9 -26 7 -89 33 -131 130 -278 200
-305 15 -6 81 -10 147 -10 l121 0 41 43 c28 28 51 68 70 120 17 43 33 80 38
83 5 3 21 3 37 -1 23 -5 30 -15 46 -63 26 -85 93 -236 144 -327 30 -54 74
-110 136 -172 88 -91 92 -93 137 -93 49 0 63 10 73 51 8 33 37 39 179 39 l99
0 43 -40 c24 -22 48 -40 54 -40 21 0 96 34 122 56 138 114 258 343 258 493 0
39 4 81 10 96 10 26 10 26 115 23 l105 -3 4 -160 c6 -239 66 -497 132 -572 34
-38 34 -38 111 -38 125 0 171 11 193 47 15 24 16 35 7 49 -11 18 -12 17 -24
-4 -7 -12 -12 -17 -13 -11 0 6 9 22 19 36 11 13 25 53 32 89 17 84 26 94 19
19 -3 -33 -3 -60 1 -60 13 0 19 136 18 390 -3 472 -1 694 6 818 l7 122 162 -2
161 -3 -1 -155 c0 -85 -4 -175 -9 -199 -7 -37 -6 -43 6 -36 11 7 12 6 3 -6 -6
-8 -11 -22 -11 -31 0 -13 7 -16 26 -13 14 3 19 2 11 -2 -43 -19 -55 -63 -17
-64 l22 0 -22 -9 c-13 -5 -23 -16 -23 -25 0 -21 17 -19 23 3 4 16 5 16 6 -1 0
-10 -6 -20 -14 -23 -21 -8 -22 -114 -1 -114 8 0 18 5 21 10 4 6 11 8 16 5 5
-4 2 -13 -6 -21 -8 -9 -13 -20 -10 -25 9 -14 25 -11 25 5 0 8 4 18 10 21 6 3
7 -1 4 -9 -3 -9 -1 -16 5 -16 15 0 51 37 51 52 0 6 -10 0 -22 -13 -13 -13 -22
-22 -21 -20 2 2 -2 10 -8 18 -9 10 -7 13 10 13 12 0 21 6 21 16 0 14 -2 14
-22 0 -25 -18 -42 -21 -33 -6 3 5 0 7 -8 4 -8 -3 -20 3 -28 12 -8 10 -9 15 -2
11 6 -4 14 -3 18 3 3 5 1 10 -5 10 -6 0 -8 5 -5 10 3 6 28 10 56 10 27 0 49 4
49 10 0 5 -8 7 -17 4 -11 -4 -14 -3 -7 3 6 4 14 15 17 23 4 12 6 11 6 -3 1
-10 6 -15 11 -12 6 4 7 11 4 17 -4 6 -2 8 4 4 6 -3 13 -2 16 3 3 5 -1 12 -10
15 -9 4 -15 9 -12 11 3 3 18 -1 33 -9 16 -8 32 -13 37 -10 4 3 5 -1 2 -9 -3
-9 -13 -13 -25 -10 -23 6 -50 -13 -43 -31 3 -8 -2 -16 -10 -19 -21 -8 -20 -33
0 -41 9 -3 14 -12 11 -19 -3 -8 3 -14 14 -14 10 -1 19 2 19 8 0 5 8 9 18 10
14 0 14 2 -3 9 -19 8 -19 9 3 9 16 1 22 -5 22 -21 0 -12 -3 -19 -6 -15 -4 3
-12 0 -20 -7 -7 -7 -24 -11 -37 -9 -14 3 -28 -1 -32 -8 -6 -9 -1 -10 19 -5 14
3 26 3 26 -2 0 -16 -28 -47 -36 -39 -4 4 -2 7 5 7 7 0 9 5 6 10 -4 6 -11 8
-16 5 -5 -4 -9 -2 -9 3 0 5 -14 6 -31 4 -19 -3 -26 -7 -19 -12 9 -6 9 -12 -1
-29 -8 -11 -17 -21 -21 -21 -5 0 -8 -8 -8 -18 0 -9 -9 -23 -21 -30 -27 -17
-18 -27 10 -12 15 8 27 8 42 0 17 -10 24 -8 40 11 10 12 19 17 19 11 0 -7 6
-12 14 -12 9 0 12 -7 9 -20 -3 -11 -9 -20 -14 -20 -5 0 -9 -7 -9 -15 0 -8 6
-12 15 -9 8 3 14 9 13 12 -3 28 4 41 20 36 15 -5 15 -4 -1 6 -14 9 -16 15 -6
26 8 10 8 14 0 14 -6 0 -11 -4 -11 -10 0 -5 -5 -10 -11 -10 -5 0 -7 5 -3 12 4
7 3 8 -4 4 -7 -4 -12 -2 -12 3 0 10 21 16 42 12 4 0 3 10 -2 23 -9 24 -5 36
12 36 4 0 7 -3 7 -7 -1 -5 -1 -22 0 -40 1 -24 5 -31 16 -27 8 4 15 1 15 -5 0
-6 -8 -11 -17 -11 -14 0 -15 -2 -4 -9 8 -5 10 -14 6 -21 -5 -8 -4 -11 3 -6 6
4 12 -4 14 -21 2 -17 9 -28 18 -28 8 0 16 -8 18 -18 4 -19 -14 -24 -20 -6 -3
8 -44 12 -121 13 l-117 1 0 -95 c0 -158 33 -409 59 -450 11 -17 126 -26 197
-15 70 10 75 30 83 315 6 192 10 241 24 267 12 22 17 56 17 107 l0 75 43 5
c23 3 113 7 200 8 l157 3 1 -70 c2 -87 4 -106 23 -180 12 -43 16 -109 16 -245
0 -170 8 -251 25 -268 9 -9 189 -16 220 -8 19 5 26 16 34 59 17 79 30 427 19
457 -6 14 -12 20 -15 13 -3 -8 -12 -9 -29 -3 -13 5 -24 6 -24 2 0 -15 -40 -7
-41 8 0 10 -2 11 -6 3 -7 -19 -23 -16 -24 5 -1 11 -4 9 -9 -8 -5 -17 -8 -19
-9 -7 -1 19 -21 24 -21 5 0 -9 -4 -8 -10 2 -9 13 -11 13 -20 0 -6 -10 -10 -11
-10 -2 0 14 -21 12 -33 -3 -5 -6 -6 -1 -2 10 4 11 10 30 13 43 2 13 10 21 16
19 6 -3 10 -10 8 -16 -2 -9 3 -9 17 -1 26 13 34 13 25 -2 -4 -7 -3 -8 5 -4 18
12 2 27 -22 21 -12 -2 -16 -2 -9 1 17 8 15 35 -4 49 -16 11 -16 12 0 18 9 4
16 3 16 -2 0 -4 11 -6 25 -3 14 2 24 9 22 16 -5 15 -49 14 -65 -1 -23 -22 -29
-15 -30 32 -1 25 3 45 8 45 5 0 7 -11 4 -24 -4 -24 -2 -25 40 -21 33 2 46 -1
50 -11 4 -10 13 -13 24 -10 13 5 22 -1 30 -16 9 -19 10 -14 6 27 -2 28 0 44 4
38 6 -9 11 -8 22 6 11 17 15 17 28 5 18 -19 29 -10 12 11 -8 10 -9 15 -1 15 6
0 11 5 11 10 0 6 -3 9 -7 8 -5 -2 -8 2 -8 7 0 6 3 9 8 7 14 -4 7 16 -8 22 -8
3 -15 0 -15 -6 0 -21 -13 1 -15 27 -3 22 0 24 20 19 22 -5 23 -3 20 43 -2 26
-7 164 -11 306 l-7 257 179 -2 179 -3 7 -125 c11 -214 13 -512 5 -575 -5 -33
-5 -56 0 -52 8 9 9 14 12 75 0 18 5 31 10 28 5 -3 7 -16 4 -29 -4 -18 -3 -19
7 -7 10 12 11 11 7 -7 -3 -13 -1 -26 4 -29 5 -3 9 4 9 15 0 11 4 22 8 25 4 2
6 -11 4 -30 -3 -23 0 -34 8 -32 8 2 12 -14 13 -49 1 -29 -2 -49 -7 -45 -6 3
-6 -3 -2 -14 4 -10 9 -28 12 -38 2 -11 7 -22 12 -25 4 -3 7 -15 7 -26 0 -11 5
-27 10 -35 10 -13 12 -35 5 -42 -6 -7 -6 -58 0 -58 4 0 7 -7 7 -15 0 -12 -3
-12 -15 -2 -13 10 -14 9 -3 -10 6 -13 8 -23 4 -23 -4 0 0 -5 9 -11 15 -8 17
-21 12 -87 -3 -42 -13 -108 -22 -147 -9 -38 -17 -74 -17 -80 0 -5 -4 -13 -10
-18 -11 -8 160 -2 210 8 43 8 71 48 94 135 24 88 25 100 9 100 -7 0 -5 5 4 13
10 8 19 40 25 92 10 83 6 126 -8 89 -7 -18 -8 -18 -8 2 -1 17 -7 20 -40 19
-22 -1 -38 2 -35 6 5 9 -27 17 -44 12 -6 -3 -9 -10 -5 -16 3 -7 -2 -5 -13 4
-12 11 -26 14 -39 9 -11 -4 -26 -5 -34 -2 -7 3 -17 -1 -22 -9 -5 -9 -9 13 -9
59 l0 72 39 -5 c28 -3 45 0 55 11 9 8 16 11 16 5 0 -6 9 -11 21 -11 11 0 17 5
14 10 -4 6 -11 7 -17 4 -7 -4 -8 -2 -4 4 5 8 0 12 -12 12 -11 0 -23 -7 -26
-16 -4 -9 -9 -14 -13 -11 -3 4 0 13 6 21 7 8 10 20 6 26 -3 5 -1 10 4 10 6 0
11 -3 11 -7 0 -5 11 -13 25 -19 18 -9 25 -9 29 0 2 6 5 1 5 -11 1 -16 7 -23
22 -23 19 0 19 1 5 16 -26 26 -18 26 34 -1 27 -14 52 -25 55 -25 3 0 5 41 5
90 0 64 4 92 13 95 6 2 67 5 134 7 l123 3 5 -40 c3 -22 7 -71 10 -110 4 -80
16 -119 74 -235 47 -94 112 -183 173 -235 71 -60 117 -59 180 6 21 21 38 35
38 30 0 -9 164 -7 270 4 33 3 41 2 28 -5 -37 -22 21 -70 84 -70 26 0 43 9 73
40 37 38 42 40 100 40 47 0 66 4 78 18 24 26 21 44 -5 42 -45 -4 -50 -1 -44
25 5 18 2 27 -9 31 -8 4 -15 11 -15 16 0 6 8 7 17 4 10 -4 14 -3 9 1 -4 4 -18
8 -31 8 -16 1 -21 -4 -18 -15 2 -8 -3 -4 -11 10 -14 23 -15 23 -16 5 -1 -19
-1 -19 -11 -1 -8 13 -8 39 0 92 14 95 14 127 0 119 -7 -5 -9 6 -7 31 2 25 8
38 16 36 9 -1 12 17 12 68 0 38 3 70 8 70 13 0 29 -15 41 -37 13 -25 34 -32
25 -8 -4 8 -1 15 5 15 6 0 11 -4 11 -9 0 -17 42 -24 51 -10 6 10 9 11 9 2 0
-7 7 -13 15 -13 18 0 20 27 3 33 -7 2 -3 2 9 1 22 -4 23 -1 38 76 3 14 7 51 9
83 2 32 7 61 10 64 8 8 8 124 0 256 -5 80 -11 107 -22 112 -8 3 -20 1 -27 -5
-7 -6 -17 -10 -21 -9 -28 5 -36 -2 -30 -27 5 -17 3 -23 -4 -19 -14 8 -13 38 2
53 9 9 8 12 -5 12 -11 0 -17 -8 -18 -22 0 -22 -1 -22 -8 -3 -5 11 -7 22 -6 25
2 3 -10 5 -25 4 -28 -1 -60 -24 -60 -43 0 -6 -4 -11 -10 -11 -5 0 -7 7 -4 15
4 10 0 15 -16 15 -16 0 -20 5 -16 18 4 16 20 297 18 332 0 8 1 31 4 51 5 33 7
35 34 31 26 -4 29 -7 24 -31 -4 -20 -3 -23 5 -11 8 12 14 12 28 4 13 -8 27 -8
47 -1 21 7 30 6 36 -3 4 -7 15 -10 24 -7 9 4 16 2 16 -2 0 -5 9 -7 19 -4 12 3
17 11 14 19 -3 8 0 14 6 14 16 0 14 26 -16 309 l-27 254 -54 58 c-65 71 -89
79 -238 79 -128 0 -156 -12 -207 -88 -33 -49 -80 -175 -98 -260 -18 -88 -25
-93 -38 -26 -37 186 -109 368 -161 406 -20 14 -52 19 -165 24 -134 6 -141 6
-168 -16z m-2653 -570 c9 25 46 68 46 53 0 -4 4 -1 9 7 12 18 215 25 204 6 -4
-6 1 -5 10 2 9 8 21 11 27 7 11 -7 41 -14 78 -19 31 -4 32 -7 39 -69 4 -37 2
-57 -7 -62 -6 -4 -70 -9 -141 -10 -72 -1 -132 -5 -135 -8 -13 -13 9 -27 41
-27 19 0 37 -4 40 -10 3 -5 22 -10 42 -10 50 0 36 -9 -23 -17 -95 -11 -127
-18 -132 -31 -4 -12 3 -12 241 -14 51 0 67 -3 67 -14 0 -8 -10 -14 -22 -15
-287 -9 -340 -9 -355 0 -16 9 -14 11 14 23 l33 14 -35 13 c-28 10 -35 17 -35
40 0 27 0 27 60 23 50 -4 59 -2 55 10 -4 11 -22 16 -57 17 -36 0 -55 6 -64 18
-12 16 -14 8 -15 -57 l-2 -75 -8 75 c-10 83 -17 110 -18 67 -1 -43 -21 -21
-21 23 0 40 16 63 22 33 2 -10 8 18 14 62 l9 80 5 -80 c4 -62 7 -74 14 -55z
m1719 104 c16 -2 36 -8 45 -16 10 -8 13 -9 9 -1 -7 12 -2 12 43 1 8 -1 18 -6
21 -11 3 -4 16 -10 29 -12 30 -6 37 -14 42 -45 l5 -25 11 25 c8 19 11 21 11 7
1 -10 6 -15 11 -12 6 4 10 -10 10 -35 0 -38 -1 -40 -25 -34 -14 3 -25 2 -25
-4 0 -6 -31 -10 -72 -10 -263 -1 -316 -4 -322 -18 -4 -11 9 -14 69 -15 41 -1
78 -2 83 -3 4 -1 36 -6 72 -10 93 -10 120 -16 120 -27 0 -5 -15 -9 -34 -9 -38
0 -98 -19 -92 -28 2 -4 -23 -8 -57 -9 -33 -2 -80 -10 -103 -19 -66 -25 -76
-16 -73 64 1 37 -1 79 -5 93 -9 30 10 112 24 104 5 -3 11 4 15 15 6 20 9 21
44 24 11 0 23 4 27 8 4 4 14 2 22 -5 13 -9 14 -9 8 1 -4 7 -1 12 9 12 9 0 14
-4 11 -8 -3 -5 1 -9 8 -9 8 0 12 7 8 15 -4 11 -2 13 9 7 8 -5 27 -10 42 -11z
m1212 -329 c17 -57 40 -89 56 -80 5 4 9 -1 9 -9 0 -9 5 -16 10 -16 6 0 10 11
10 24 0 13 7 29 16 36 22 19 74 17 86 -3 11 -21 54 -22 65 -2 6 10 13 -12 21
-67 10 -71 10 -85 -4 -106 -10 -16 -21 -21 -32 -17 -9 3 -61 10 -115 15 -54 5
-99 10 -100 12 -1 2 -11 19 -22 38 -14 26 -20 60 -23 133 -3 53 -2 97 2 97 3
0 13 -25 21 -55z m-1831 -130 c-19 -14 -18 -14 4 -15 20 0 22 -5 22 -50 0 -37
-3 -48 -13 -44 -8 3 -20 -2 -27 -11 -11 -13 -10 -14 4 -9 12 5 15 2 10 -12 -5
-17 -4 -17 12 1 11 13 15 15 11 4 -3 -8 1 -40 7 -70 11 -48 13 -51 21 -29 l8
25 4 -27 c6 -40 23 -34 23 7 0 21 5 35 13 35 9 0 9 2 0 8 -10 6 -10 12 2 28
13 16 14 16 9 2 -7 -21 21 -26 30 -5 3 6 4 3 1 -9 -4 -14 0 -21 11 -21 10 0
14 7 10 20 -3 13 -1 16 5 10 10 -10 16 -35 21 -93 3 -35 3 -35 -41 -37 -47 -2
-61 -14 -61 -53 0 -18 -3 -21 -9 -12 -6 11 -10 10 -15 -4 -6 -14 -9 -16 -15
-5 -6 9 -11 10 -15 2 -4 -6 -37 -11 -74 -12 -37 0 -90 -4 -119 -8 -28 -4 -78
-4 -110 -1 -38 5 -59 3 -62 -4 -2 -6 -10 5 -18 24 -12 33 -13 29 -9 -54 3 -48
2 -125 -2 -170 -6 -74 -7 -65 -12 92 -5 159 -7 175 -25 188 -11 8 -33 14 -50
13 -55 -2 -58 -1 -50 29 8 31 13 54 14 65 1 4 12 7 26 7 14 0 25 6 25 14 0 9
8 12 25 8 14 -2 22 -8 20 -13 -3 -4 -2 -21 2 -36 7 -23 9 -17 14 37 l6 65 1
-85 c2 -59 5 -80 12 -70 5 8 10 33 11 55 l1 40 8 -33 c12 -51 17 -48 24 18 4
35 12 60 18 60 9 0 9 3 0 12 -7 7 -12 39 -12 75 l0 63 162 0 c144 0 160 -2
142 -15z m-1922 -292 c14 -18 24 -9 33 29 l8 33 7 -30 7 -30 12 32 c10 25 18
32 34 29 12 -2 34 3 50 11 21 11 27 11 27 1 0 -9 3 -8 10 2 5 8 10 10 10 4 0
-11 35 -12 46 -1 4 4 13 2 21 -5 11 -9 12 -7 7 7 -6 14 -4 16 7 9 22 -13 43
-14 51 -1 5 8 8 6 8 -6 0 -10 4 -15 10 -12 5 3 18 1 28 -4 13 -7 22 -7 30 1 9
9 12 4 13 -22 0 -29 2 -31 9 -15 6 14 9 -2 9 -50 l1 -70 -187 2 c-141 1 -188
5 -194 15 -7 10 -9 9 -9 -4 0 -10 -4 -18 -10 -18 -5 0 -10 7 -10 15 0 17 -2
18 -24 9 -12 -4 -16 -21 -18 -63 -1 -54 -1 -53 -8 19 -3 41 -4 116 0 165 5 88
5 88 8 25 2 -35 8 -70 14 -77z m3278 103 c14 -3 46 -7 72 -10 25 -2 56 -9 67
-15 11 -7 32 -9 46 -7 20 4 25 1 26 -17 1 -19 2 -18 14 8 l14 30 7 -33 c9 -45
28 -35 35 19 6 44 6 44 7 7 1 -20 7 -48 13 -62 9 -20 9 -32 -3 -56 -12 -26
-17 -28 -22 -15 -5 14 -9 15 -21 5 -16 -13 -40 -16 -192 -24 -50 -2 -96 -7
-102 -11 -6 -3 -16 -3 -22 1 -7 4 -10 1 -7 -7 3 -8 16 -14 29 -14 13 0 29 -3
36 -8 6 -4 18 -4 26 -1 9 3 40 1 69 -5 29 -6 68 -12 86 -13 17 -1 32 -6 32
-11 0 -5 7 -7 15 -3 22 8 19 -32 -5 -88 -19 -42 -24 -46 -56 -46 -19 0 -57 -9
-84 -21 -38 -16 -60 -20 -97 -15 -26 4 -65 8 -86 9 -29 2 -39 7 -42 22 -7 31
-15 140 -20 255 -5 96 -4 103 10 80 l14 -25 1 31 c0 16 5 35 12 42 11 11 67
10 128 -2z m462 -129 c4 -7 8 -7 8 -2 0 9 35 11 139 6 l34 -1 -5 -45 c-5 -42
-4 -45 18 -45 25 0 32 15 12 24 -9 3 -8 8 5 16 9 6 17 18 17 26 0 8 4 13 9 10
9 -6 65 -226 59 -231 -4 -4 -48 -7 -75 -6 -17 1 -21 6 -18 22 3 12 1 27 -3 33
-9 15 -9 38 0 58 5 10 2 18 -7 22 -9 3 -15 -1 -15 -10 0 -8 -4 -12 -10 -9 -5
3 -10 18 -10 32 l0 25 -20 -23 c-16 -20 -19 -21 -20 -7 0 12 -5 15 -16 11 -9
-3 -19 -1 -23 6 -5 8 -14 6 -31 -9 -29 -25 -29 -25 -22 2 5 19 4 20 -10 8 -16
-15 -13 -40 4 -40 5 0 6 -5 2 -11 -4 -7 -14 0 -26 18 -11 15 -18 21 -15 13 3
-9 -1 -24 -9 -35 -8 -10 -14 -14 -14 -7 0 6 -7 9 -15 6 -10 -4 -13 -13 -10
-25 4 -11 2 -19 -4 -19 -6 0 -11 4 -11 9 0 5 -3 23 -6 40 -5 24 -3 31 10 31 9
0 16 -4 16 -10 0 -5 6 -10 13 -10 6 1 2 9 -9 19 -19 15 -21 24 -15 58 4 22 10
44 14 49 8 14 50 15 59 1z m-2130 -117 c3 11 13 11 47 2 30 -7 52 -7 70 -1 29
12 75 5 123 -16 32 -14 31 -15 -37 -10 -50 4 -64 3 -50 -5 17 -8 16 -9 -10 -7
-25 2 -33 -4 -46 -30 -12 -24 -19 -29 -27 -21 -9 9 -12 9 -12 -1 0 -24 57 -70
97 -77 28 -5 46 -2 74 13 48 26 114 19 114 -12 0 -19 -8 -20 -167 -23 l-168
-2 0 34 c0 49 -20 57 -21 9 -2 -75 -17 7 -18 97 0 76 1 82 13 61 9 -16 15 -20
18 -11z m2178 -360 c0 13 1 13 10 0 16 -24 12 -40 -7 -33 -14 5 -13 1 5 -19
12 -13 19 -28 15 -31 -3 -4 -4 -7 -1 -7 3 0 11 7 18 16 11 12 11 15 0 12 -7
-2 -14 2 -17 8 -5 14 30 14 39 0 4 -6 1 -17 -5 -26 -11 -13 -10 -13 6 -1 18
14 24 2 7 -15 -7 -7 -6 -11 3 -11 8 0 13 11 13 28 0 15 -3 26 -7 23 -13 -7
-16 19 -5 42 8 17 18 22 41 20 28 -2 30 -6 35 -47 4 -35 6 -39 12 -21 6 21 9
22 28 12 15 -8 20 -8 16 -1 -4 7 6 10 29 9 20 -1 39 -6 42 -11 4 -6 1 -7 -8
-2 -8 5 -10 4 -6 0 15 -17 36 -14 29 3 -5 14 -3 15 9 5 9 -7 20 -8 29 -3 8 5
21 5 29 1 9 -5 34 -12 56 -15 22 -4 50 -14 63 -22 17 -11 27 -12 37 -4 10 8
14 5 19 -15 8 -32 23 -24 35 18 7 25 9 12 9 -63 0 -52 -2 -88 -5 -80 -14 43
-16 45 -22 21 -10 -39 -1 -93 15 -87 15 6 17 -35 4 -89 l-7 -30 -7 38 c-7 30
-11 35 -22 26 -8 -6 -14 -16 -14 -22 0 -5 -12 -21 -27 -35 l-28 -26 -172 2
c-145 2 -173 0 -173 -12 0 -8 -5 -18 -12 -22 -8 -5 -9 4 -4 34 7 44 1 48 -55
43 -20 -2 -53 45 -45 65 3 8 2 14 -3 14 -7 0 -21 56 -35 137 -2 12 -7 27 -11
33 -9 14 23 50 39 44 16 -6 17 28 2 38 -6 4 -11 21 -12 39 -1 21 1 27 7 18 7
-12 9 -11 9 1z m-4565 -170 c7 0 15 5 17 11 3 10 46 16 163 22 17 1 33 7 38
12 4 6 11 4 17 -5 7 -11 10 -11 10 -2 0 10 5 10 20 2 14 -8 20 -8 20 0 0 7 6
8 18 2 9 -5 36 -8 59 -7 l42 3 7 -44 c10 -66 3 -74 -63 -76 -32 0 -83 -3 -113
-4 -30 -2 -63 -4 -73 -4 -37 -2 -4 -20 36 -20 24 0 52 -7 63 -15 12 -8 24 -12
27 -9 8 8 81 -19 90 -33 4 -7 17 -13 27 -13 11 0 20 -7 20 -15 0 -8 -4 -15
-10 -15 -5 0 -10 5 -10 10 0 6 -11 3 -24 -7 -30 -23 -24 -33 20 -33 19 0 34
-4 34 -10 0 -5 -15 -10 -33 -10 -19 0 -56 -7 -83 -15 -59 -18 -113 -19 -151
-4 -40 17 -143 18 -143 2 0 -17 -17 -17 -23 0 -3 6 -6 1 -6 -13 -2 -40 -48
106 -60 190 -16 111 -20 199 -11 205 5 3 10 -16 12 -41 5 -71 24 -66 34 8 l9
63 3 -67 c2 -50 7 -68 17 -68z"/>
<path d="M7136 3511 c-3 -4 -8 -59 -11 -122 -4 -63 -8 -129 -10 -147 -1 -18 0
-43 3 -55 6 -22 6 -22 12 3 5 20 12 25 38 25 18 0 36 5 40 11 4 6 19 10 34 10
20 0 25 -3 17 -12 -6 -7 -6 -15 -1 -18 5 -3 14 5 19 17 10 21 20 24 76 18 4
-1 7 -6 7 -12 0 -5 -4 -7 -10 -4 -5 3 -10 2 -10 -4 0 -5 8 -9 19 -8 13 1 17 7
13 22 -5 18 -4 18 11 6 9 -7 14 -18 10 -24 -3 -6 -1 -7 6 -3 6 4 9 11 7 14 -2
4 5 19 16 32 11 14 17 19 13 11 -4 -7 -3 -16 3 -20 6 -4 12 -24 14 -45 3 -54
18 -56 18 -2 0 25 3 46 8 47 104 7 181 6 175 -4 -4 -8 -1 -7 9 1 13 10 17 10
21 0 4 -10 6 -10 6 0 1 6 8 12 16 12 17 0 28 -37 29 -96 1 -23 4 -40 8 -38 15
9 223 11 241 2 10 -5 25 -5 37 2 14 7 20 7 20 0 0 -6 52 -10 146 -10 l147 0
-7 43 c-4 23 -15 53 -25 67 -18 25 -21 25 -183 30 -162 5 -166 6 -186 30 -20
24 -24 25 -125 22 -83 -2 -107 1 -117 13 -10 12 -37 15 -129 15 l-116 0 -23
58 c-25 63 -47 93 -79 111 -25 13 -199 15 -207 2z"/>
</g>
</svg>
